<svg id="visual" viewBox="0 0 900 900" width="900" height="900" xmlns="http://www.w3.org/2000/svg" xmlns:xlink="http://www.w3.org/1999/xlink" version="1.1"><rect x="0" y="0" width="900" height="900" fill="#F7F7F9"></rect><path d="M0 523L30 547C60 571 120 619 180 625.2C240 631.3 300 595.7 360 591.3C420 587 480 614 540 640C600 666 660 691 720 680.5C780 670 840 624 870 601L900 578L900 901L870 901C840 901 780 901 720 901C660 901 600 901 540 901C480 901 420 901 360 901C300 901 240 901 180 901C120 901 60 901 30 901L0 901Z" fill="#E9724C" stroke-linecap="round" stroke-linejoin="miter"></path></svg>